<?xml version="1.0" encoding="UTF-8" standalone="no"?>
<!DOCTYPE svg PUBLIC "-//W3C//DTD SVG 1.1//EN" "http://www.w3.org/Graphics/SVG/1.1/DTD/svg11.dtd">
<svg width="100%" height="100%" viewBox="0 0 170 16" version="1.1" xmlns="http://www.w3.org/2000/svg" xmlns:xlink="http://www.w3.org/1999/xlink" xml:space="preserve" xmlns:serif="http://www.serif.com/" style="fill-rule:evenodd;clip-rule:evenodd;stroke-linejoin:round;stroke-miterlimit:2;">
    <g>
        <path d="M31.108,15.568L31.108,11.027L33.811,11.027C34.647,11.027 35.411,10.894 36.103,10.627C36.763,10.38 37.367,10.002 37.876,9.514C38.366,9.038 38.756,8.468 39.022,7.838C39.295,7.196 39.432,6.494 39.432,5.73C39.432,4.98 39.295,4.281 39.022,3.632C38.758,2.998 38.368,2.425 37.876,1.946C37.367,1.458 36.764,1.079 36.103,0.832C35.411,0.566 34.647,0.432 33.811,0.432L27,0.432L27,15.568L31.108,15.568ZM33.595,7.351L31.108,7.351L31.108,4.108L33.595,4.108C34.085,4.108 34.495,4.27 34.827,4.595C35.159,4.919 35.324,5.297 35.324,5.73C35.324,6.162 35.159,6.54 34.827,6.865C34.495,7.189 34.085,7.351 33.595,7.351ZM46.135,15.568L46.135,9.73L51.649,9.73L51.649,15.568L55.757,15.568L55.757,0.432L51.649,0.432L51.649,6.054L46.135,6.054L46.135,0.432L42.027,0.432L42.027,15.568L46.135,15.568ZM66.784,16C67.922,16.009 69.05,15.792 70.103,15.362C71.099,14.959 72.009,14.368 72.783,13.622C73.536,12.893 74.142,12.027 74.568,11.07C75,10.105 75.216,9.081 75.216,8C75.221,6.942 75,5.895 74.568,4.93C74.142,3.973 73.536,3.107 72.784,2.378C72.01,1.632 71.1,1.041 70.103,0.638C69.049,0.208 67.921,-0.009 66.783,0C65.587,0 64.477,0.213 63.454,0.638C62.462,1.043 61.555,1.634 60.784,2.378C60.032,3.107 59.426,3.973 59,4.93C58.568,5.895 58.346,6.942 58.351,8C58.351,9.081 58.568,10.105 59,11.07C59.426,12.027 60.032,12.893 60.784,13.622C61.555,14.366 62.462,14.957 63.454,15.362C64.477,15.787 65.587,16 66.784,16ZM66.784,12.324C66.213,12.328 65.647,12.218 65.119,12C64.614,11.793 64.158,11.484 63.779,11.092C63.399,10.695 63.098,10.229 62.892,9.719C62.672,9.173 62.562,8.589 62.568,8C62.568,7.38 62.676,6.807 62.892,6.281C63.098,5.771 63.398,5.305 63.778,4.908C64.153,4.518 64.6,4.216 65.118,4C65.646,3.782 66.213,3.672 66.784,3.676C67.374,3.676 67.926,3.784 68.438,4C68.95,4.216 69.396,4.519 69.778,4.908C70.16,5.298 70.459,5.755 70.676,6.281C70.892,6.807 71,7.381 71,8C71,8.62 70.892,9.193 70.676,9.719C70.469,10.231 70.164,10.697 69.778,11.092C69.396,11.482 68.95,11.784 68.438,12C67.914,12.218 67.352,12.329 66.784,12.324ZM84.838,15.568L84.838,4.108L89.054,4.108L89.054,0.432L76.514,0.432L76.514,4.108L80.73,4.108L80.73,15.568L84.838,15.568ZM98.784,16C99.922,16.009 101.05,15.792 102.103,15.362C103.099,14.959 104.009,14.368 104.783,13.622C105.536,12.893 106.142,12.027 106.568,11.07C107,10.105 107.216,9.081 107.216,8C107.221,6.942 107,5.895 106.568,4.93C106.142,3.973 105.536,3.107 104.784,2.378C104.01,1.632 103.1,1.041 102.103,0.638C101.049,0.208 99.921,-0.009 98.783,0C97.587,0 96.477,0.213 95.454,0.638C94.462,1.043 93.555,1.634 92.784,2.378C92.032,3.107 91.426,3.973 91,4.93C90.568,5.895 90.346,6.942 90.351,8C90.351,9.081 90.568,10.105 91,11.07C91.426,12.027 92.032,12.893 92.784,13.622C93.555,14.366 94.462,14.957 95.454,15.362C96.477,15.787 97.587,16 98.784,16ZM98.784,12.324C98.213,12.328 97.647,12.218 97.119,12C96.614,11.793 96.158,11.484 95.779,11.092C95.399,10.695 95.098,10.229 94.892,9.719C94.672,9.173 94.562,8.589 94.568,8C94.568,7.38 94.676,6.807 94.892,6.281C95.098,5.771 95.398,5.305 95.778,4.908C96.153,4.518 96.6,4.216 97.118,4C97.646,3.782 98.213,3.672 98.784,3.676C99.374,3.676 99.926,3.784 100.438,4C100.95,4.216 101.396,4.519 101.778,4.908C102.16,5.298 102.459,5.755 102.676,6.281C102.892,6.807 103,7.381 103,8C103,8.62 102.892,9.193 102.676,9.719C102.469,10.231 102.164,10.697 101.778,11.092C101.396,11.482 100.95,11.784 100.438,12C99.914,12.218 99.352,12.329 98.784,12.324ZM114.568,16C115.518,16 116.369,15.867 117.118,15.6C117.868,15.333 118.503,14.973 119.022,14.519C119.541,14.065 119.937,13.539 120.211,12.941C120.485,12.342 120.621,11.705 120.621,11.027C120.621,10.147 120.449,9.427 120.103,8.865C119.775,8.322 119.332,7.857 118.805,7.503C118.279,7.154 117.708,6.877 117.108,6.681L115.411,6.119C114.962,5.976 114.528,5.792 114.114,5.568C113.768,5.373 113.594,5.103 113.594,4.757C113.594,4.425 113.742,4.127 114.038,3.859C114.333,3.593 114.726,3.459 115.216,3.459C115.591,3.459 115.93,3.521 116.232,3.643C116.535,3.766 116.795,3.906 117.011,4.065C117.271,4.238 117.501,4.432 117.703,4.649L120.081,2.162C119.713,1.74 119.282,1.376 118.805,1.082C118.373,0.807 117.825,0.559 117.162,0.335C116.5,0.112 115.706,0 114.784,0C113.919,0 113.134,0.13 112.427,0.39C111.721,0.649 111.119,0.995 110.622,1.427C110.124,1.859 109.739,2.357 109.465,2.919C109.197,3.456 109.057,4.049 109.055,4.649C109.055,5.528 109.227,6.249 109.573,6.811C109.901,7.354 110.344,7.819 110.87,8.173C111.396,8.523 111.967,8.799 112.568,8.995C113.18,9.196 113.746,9.384 114.265,9.557C114.784,9.73 115.216,9.914 115.562,10.108C115.908,10.303 116.082,10.573 116.082,10.918C116.082,11.351 115.908,11.73 115.562,12.054C115.216,12.378 114.741,12.541 114.135,12.541C113.645,12.541 113.202,12.458 112.805,12.291C112.444,12.145 112.1,11.96 111.778,11.741C111.453,11.501 111.155,11.226 110.892,10.919L108.514,13.405C108.946,13.895 109.458,14.328 110.049,14.703C110.553,15.034 111.18,15.333 111.929,15.6C112.679,15.867 113.559,16 114.568,16ZM127.108,15.568L127.108,7.135L133.616,15.568L137.162,15.568L137.162,0.432L133.054,0.432L133.054,8.865L126.568,0.432L123,0.432L123,15.568L127.108,15.568ZM143.324,15.568L144.405,12.324L149.378,12.324L150.459,15.568L154.892,15.568L149.162,0.432L144.622,0.432L138.892,15.568L143.324,15.568ZM148.297,9.081L145.487,9.081L146.892,4.649L148.297,9.081ZM160.73,15.568L160.73,11.027L163.432,11.027C164.268,11.027 165.032,10.894 165.724,10.627C166.384,10.38 166.988,10.002 167.497,9.514C167.987,9.038 168.377,8.468 168.643,7.838C168.917,7.196 169.054,6.494 169.054,5.73C169.054,4.98 168.917,4.281 168.644,3.632C168.38,2.998 167.99,2.425 167.497,1.946C166.988,1.458 166.385,1.079 165.724,0.832C165.032,0.566 164.268,0.432 163.432,0.432L156.622,0.432L156.622,15.568L160.73,15.568ZM163.216,7.351L160.73,7.351L160.73,4.108L163.216,4.108C163.706,4.108 164.117,4.27 164.449,4.595C164.78,4.919 164.946,5.297 164.946,5.73C164.946,6.162 164.78,6.54 164.449,6.865C164.117,7.189 163.706,7.351 163.216,7.351Z" style="fill:white;fill-rule:nonzero;"/>
        <path d="M0,16L9.5,0L19,16L0,16Z" style="fill:url(#_Linear1);"/>
    </g>
    <defs>
        <linearGradient id="_Linear1" x1="0" y1="0" x2="1" y2="0" gradientUnits="userSpaceOnUse" gradientTransform="matrix(9.5,-11.3462,11.3462,9.5,0,13.6731)"><stop offset="0" style="stop-color:rgb(255,197,147);stop-opacity:1"/><stop offset="0.52" style="stop-color:rgb(188,113,152);stop-opacity:1"/><stop offset="1" style="stop-color:rgb(90,119,255);stop-opacity:1"/></linearGradient>
    </defs>
</svg>
